<svg xmlns="http://www.w3.org/2000/svg" xmlns:xlink="http://www.w3.org/1999/xlink" width="500" zoomAndPan="magnify" viewBox="0 0 375 374.999991" height="500" preserveAspectRatio="xMidYMid meet" version="1.0"><defs><clipPath id="a16750884c"><path d="M 0 37.5 L 375 37.5 L 375 318.75 L 0 318.75 Z M 0 37.5 " clip-rule="nonzero"/></clipPath><clipPath id="983600ba26"><path d="M 57 66 L 375 66 L 375 318.75 L 57 318.75 Z M 57 66 " clip-rule="nonzero"/></clipPath><clipPath id="20ec8eb801"><path d="M 0 37.5 L 319 37.5 L 319 290 L 0 290 Z M 0 37.5 " clip-rule="nonzero"/></clipPath></defs><g clip-path="url(#a16750884c)"><rect x="-37.5" width="450" fill="#ffffff" y="-37.499999" height="449.999989" fill-opacity="1"/></g><path fill="#0f2e68" d="M 370.472656 196.269531 C 370.472656 135.859375 321.40625 86.769531 261.03125 86.769531 L 188.070312 86.769531 C 127.695312 86.769531 78.628906 135.859375 78.628906 196.269531 C 78.628906 256.675781 127.695312 305.769531 188.070312 305.769531 L 261.03125 305.769531 C 290.035156 305.769531 315.9375 294.269531 334.539062 275.289062 L 370.472656 305.769531 Z M 370.472656 196.269531 " fill-opacity="1" fill-rule="nonzero"/><g clip-path="url(#983600ba26)"><path stroke-linecap="butt" transform="matrix(1.824033, 0, 0, 1.825, -140.254981, -77.482267)" fill="none" stroke-linejoin="miter" d="M 279.999165 150.001016 C 279.999165 116.899554 253.099206 90.001004 219.99947 90.001004 L 179.999674 90.001004 C 146.899938 90.001004 119.999979 116.899554 119.999979 150.001016 C 119.999979 183.100338 146.899938 210.001029 179.999674 210.001029 L 219.99947 210.001029 C 235.90045 210.001029 250.101041 203.699657 260.299083 193.299398 L 279.999165 210.001029 Z M 279.999165 150.001016 " stroke="#0f2e68" stroke-width="2" stroke-opacity="1" stroke-miterlimit="4"/></g><path fill="#ff9933" d="M 297.511719 159.769531 C 297.511719 99.359375 248.445312 50.269531 188.070312 50.269531 L 115.109375 50.269531 C 54.734375 50.269531 5.667969 99.359375 5.667969 159.769531 C 5.667969 220.175781 54.734375 269.269531 115.109375 269.269531 L 188.070312 269.269531 C 217.074219 269.269531 242.972656 257.769531 261.578125 238.789062 L 297.511719 269.269531 Z M 297.511719 159.769531 " fill-opacity="1" fill-rule="nonzero"/><g clip-path="url(#20ec8eb801)"><path stroke-linecap="butt" transform="matrix(1.824033, 0, 0, 1.825, -140.254981, -77.482267)" fill="none" stroke-linejoin="miter" d="M 239.999369 130.001012 C 239.999369 96.89955 213.099409 70.001 179.999674 70.001 L 139.999877 70.001 C 106.900142 70.001 80.000182 96.89955 80.000182 130.001012 C 80.000182 163.100334 106.900142 190.001024 139.999877 190.001024 L 179.999674 190.001024 C 195.900653 190.001024 210.099103 183.699653 220.299287 173.299394 L 239.999369 190.001024 Z M 239.999369 130.001012 " stroke="#ff9933" stroke-width="2" stroke-opacity="1" stroke-miterlimit="4"/></g><path stroke-linecap="butt" transform="matrix(1.824033, 0, 0, 1.825, -140.254981, -77.482267)" fill-opacity="1" fill="#ffffff" fill-rule="nonzero" stroke-linejoin="miter" d="M 181.999878 130.001012 C 181.999878 130.72019 181.965613 131.439369 181.894942 132.156406 C 181.824271 132.873444 181.717194 133.586201 181.577993 134.292537 C 181.436651 134.998873 181.261044 135.696647 181.053314 136.385859 C 180.843443 137.075072 180.601448 137.753582 180.325189 138.41925 C 180.048929 139.084918 179.742688 139.735603 179.402182 140.371305 C 179.061677 141.007007 178.693331 141.623446 178.292862 142.222761 C 177.892393 142.822076 177.464083 143.399987 177.005792 143.956494 C 176.549643 144.513001 176.065654 145.045964 175.555966 145.555382 C 175.046278 146.0648 174.513033 146.548533 173.956231 147.006581 C 173.399429 147.462488 172.821212 147.892711 172.221579 148.292968 C 171.624087 148.693225 171.00518 149.063516 170.371283 149.401701 C 169.735244 149.742026 169.084214 150.050246 168.418193 150.326359 C 167.754314 150.600331 167.075444 150.844338 166.385866 151.051958 C 165.696288 151.261718 164.998144 151.437232 164.291434 151.576359 C 163.584724 151.717626 162.87373 151.822506 162.156312 151.89314 C 161.438894 151.963773 160.721476 152.00016 159.999775 152.00016 C 159.280216 152.00016 158.560657 151.963773 157.843239 151.89314 C 157.125821 151.822506 156.414827 151.717626 155.708117 151.576359 C 155.001407 151.437232 154.303263 151.261718 153.613685 151.051958 C 152.924107 150.844338 152.247379 150.600331 151.581358 150.326359 C 150.915337 150.050246 150.264307 149.742026 149.628268 149.401701 C 148.99437 149.063516 148.377605 148.693225 147.777972 148.292968 C 147.178339 147.892711 146.600122 147.462488 146.04332 147.006581 C 145.486518 146.548533 144.953273 146.0648 144.443585 145.555382 C 143.933897 145.045964 143.449908 144.513001 142.993759 143.956494 C 142.537609 143.399987 142.107158 142.822076 141.706689 142.222761 C 141.308362 141.623446 140.937874 141.007007 140.597369 140.371305 C 140.259004 139.735603 139.950622 139.084918 139.674362 138.41925 C 139.398103 137.753582 139.156108 137.075072 138.948378 136.385859 C 138.738507 135.696647 138.5629 134.998873 138.423699 134.292537 C 138.282357 133.586201 138.177422 132.873444 138.10675 132.156406 C 138.036079 131.439369 137.999673 130.72019 137.999673 130.001012 C 137.999673 129.279693 138.036079 128.560515 138.10675 127.843477 C 138.177422 127.12644 138.282357 126.413683 138.423699 125.707347 C 138.5629 125.001011 138.738507 124.303237 138.948378 123.614024 C 139.156108 122.924812 139.398103 122.246302 139.674362 121.580634 C 139.950622 120.914966 140.259004 120.264281 140.597369 119.628578 C 140.937874 118.992876 141.308362 118.376438 141.706689 117.777123 C 142.107158 117.177807 142.537609 116.599896 142.993759 116.043389 C 143.449908 115.486882 143.933897 114.95392 144.443585 114.444502 C 144.953273 113.935084 145.486518 113.451351 146.04332 112.993303 C 146.600122 112.537395 147.178339 112.107173 147.777972 111.706916 C 148.377605 111.306659 148.99437 110.936368 149.628268 110.598183 C 150.264307 110.257857 150.915337 109.949638 151.581358 109.675665 C 152.247379 109.399552 152.924107 109.155545 153.613685 108.947926 C 154.303263 108.738165 155.001407 108.562651 155.708117 108.423525 C 156.414827 108.282258 157.125821 108.177377 157.843239 108.106744 C 158.560657 108.03611 159.280216 107.999723 159.999775 107.999723 C 160.721476 107.999723 161.438894 108.03611 162.156312 108.106744 C 162.87373 108.177377 163.584724 108.282258 164.291434 108.423525 C 164.998144 108.562651 165.696288 108.738165 166.385866 108.947926 C 167.075444 109.155545 167.754314 109.399552 168.418193 109.675665 C 169.084214 109.949638 169.735244 110.257857 170.371283 110.598183 C 171.00518 110.936368 171.624087 111.306659 172.221579 111.706916 C 172.821212 112.107173 173.399429 112.537395 173.956231 112.993303 C 174.513033 113.451351 175.046278 113.935084 175.555966 114.444502 C 176.065654 114.95392 176.549643 115.486882 177.005792 116.043389 C 177.464083 116.599896 177.892393 117.177807 178.292862 117.777123 C 178.693331 118.376438 179.061677 118.992876 179.402182 119.628578 C 179.742688 120.264281 180.048929 120.914966 180.325189 121.580634 C 180.601448 122.246302 180.843443 122.924812 181.053314 123.614024 C 181.261044 124.303237 181.436651 125.001011 181.577993 125.707347 C 181.717194 126.413683 181.824271 127.12644 181.894942 127.843477 C 181.965613 128.560515 181.999878 129.279693 181.999878 130.001012 Z M 181.999878 130.001012 " stroke="#0f2e68" stroke-width="2" stroke-opacity="1" stroke-miterlimit="4"/><path fill="#0f2e68" d="M 155.238281 159.769531 C 155.238281 160.25 155.144531 160.71875 154.960938 161.164062 C 154.777344 161.613281 154.511719 162.007812 154.167969 162.347656 C 153.828125 162.691406 153.433594 162.953125 152.984375 163.140625 C 152.539062 163.324219 152.074219 163.417969 151.589844 163.417969 C 151.105469 163.417969 150.640625 163.324219 150.195312 163.140625 C 149.746094 162.953125 149.351562 162.691406 149.011719 162.347656 C 148.667969 162.007812 148.40625 161.613281 148.21875 161.164062 C 148.035156 160.71875 147.941406 160.25 147.941406 159.769531 C 147.941406 159.285156 148.035156 158.816406 148.21875 158.371094 C 148.40625 157.921875 148.667969 157.527344 149.011719 157.1875 C 149.351562 156.84375 149.746094 156.582031 150.195312 156.394531 C 150.640625 156.210938 151.105469 156.117188 151.589844 156.117188 C 152.074219 156.117188 152.539062 156.210938 152.984375 156.394531 C 153.433594 156.582031 153.828125 156.84375 154.167969 157.1875 C 154.511719 157.527344 154.777344 157.921875 154.960938 158.371094 C 155.144531 158.816406 155.238281 159.285156 155.238281 159.769531 Z M 155.238281 159.769531 " fill-opacity="1" fill-rule="nonzero"/><path stroke-linecap="butt" transform="matrix(1.824033, 0, 0, 1.825, -140.254981, -77.482267)" fill="none" stroke-linejoin="miter" d="M 159.999775 107.999723 L 159.999775 152.00016 " stroke="#0f2e68" stroke-width="1" stroke-opacity="1" stroke-miterlimit="4"/><path stroke-linecap="butt" transform="matrix(1.824033, 0, 0, 1.825, -140.254981, -77.482267)" fill-opacity="1" fill="#000000" fill-rule="nonzero" stroke-linejoin="miter" d="M 148.000693 111.00058 L 172.000999 148.999304 " stroke="#0f2e68" stroke-width="1" stroke-opacity="1" stroke-miterlimit="4"/><path stroke-linecap="butt" transform="matrix(1.824033, 0, 0, 1.825, -140.254981, -77.482267)" fill-opacity="1" fill="#000000" fill-rule="nonzero" stroke-linejoin="miter" d="M 138.999775 117.999725 L 180.999776 142.000158 " stroke="#0f2e68" stroke-width="1" stroke-opacity="1" stroke-miterlimit="4"/><path stroke-linecap="butt" transform="matrix(1.824033, 0, 0, 1.825, -140.254981, -77.482267)" fill="none" stroke-linejoin="miter" d="M 137.999673 130.001012 L 181.999878 130.001012 " stroke="#0f2e68" stroke-width="1" stroke-opacity="1" stroke-miterlimit="4"/><path stroke-linecap="butt" transform="matrix(1.824033, 0, 0, 1.825, -140.254981, -77.482267)" fill-opacity="1" fill="#000000" fill-rule="nonzero" stroke-linejoin="miter" d="M 138.999775 142.000158 L 180.999776 117.999725 " stroke="#0f2e68" stroke-width="1" stroke-opacity="1" stroke-miterlimit="4"/><path stroke-linecap="butt" transform="matrix(1.824033, 0, 0, 1.825, -140.254981, -77.482267)" fill-opacity="1" fill="#000000" fill-rule="nonzero" stroke-linejoin="miter" d="M 148.000693 148.999304 L 172.000999 111.00058 " stroke="#0f2e68" stroke-width="1" stroke-opacity="1" stroke-miterlimit="4"/><path stroke-linecap="butt" transform="matrix(1.76188, 0.472345, -0.472094, 1.762814, -68.938321, -144.97332)" fill-opacity="1" fill="#000000" fill-rule="nonzero" stroke-linejoin="miter" d="M 159.999916 107.999235 L 159.999602 152.000782 " stroke="#0f2e68" stroke-width="1" stroke-opacity="1" stroke-miterlimit="4"/><path stroke-linecap="butt" transform="matrix(1.76188, 0.472345, -0.472094, 1.762814, -68.938321, -144.97332)" fill-opacity="1" fill="#000000" fill-rule="nonzero" stroke-linejoin="miter" d="M 148.000162 110.999616 L 171.999356 149.000402 " stroke="#0f2e68" stroke-width="1" stroke-opacity="1" stroke-miterlimit="4"/><path stroke-linecap="butt" transform="matrix(1.76188, 0.472345, -0.472094, 1.762814, -68.938321, -144.97332)" fill-opacity="1" fill="#000000" fill-rule="nonzero" stroke-linejoin="miter" d="M 139.001095 118.000072 L 181.000491 141.999391 " stroke="#0f2e68" stroke-width="1" stroke-opacity="1" stroke-miterlimit="4"/><path stroke-linecap="butt" transform="matrix(1.76188, 0.472345, -0.472094, 1.762814, -68.938321, -144.97332)" fill-opacity="1" fill="#000000" fill-rule="nonzero" stroke-linejoin="miter" d="M 137.999433 129.999531 L 182.000085 130.000486 " stroke="#0f2e68" stroke-width="1" stroke-opacity="1" stroke-miterlimit="4"/><path stroke-linecap="butt" transform="matrix(1.76188, 0.472345, -0.472094, 1.762814, -68.938321, -144.97332)" fill-opacity="1" fill="#000000" fill-rule="nonzero" stroke-linejoin="miter" d="M 139.00031 142.000879 L 180.999208 117.999138 " stroke="#0f2e68" stroke-width="1" stroke-opacity="1" stroke-miterlimit="4"/><path stroke-linecap="butt" transform="matrix(1.76188, 0.472345, -0.472094, 1.762814, -68.938321, -144.97332)" fill-opacity="1" fill="#000000" fill-rule="nonzero" stroke-linejoin="miter" d="M 147.999389 149.000583 L 172.000129 110.999435 " stroke="#0f2e68" stroke-width="1" stroke-opacity="1" stroke-miterlimit="4"/><path stroke-linecap="butt" transform="matrix(1.579659, 0.9125, -0.912016, 1.580496, 17.407005, -191.696764)" fill-opacity="1" fill="#000000" fill-rule="nonzero" stroke-linejoin="miter" d="M 160.000579 107.999241 L 160.000805 151.999837 " stroke="#0f2e68" stroke-width="1" stroke-opacity="1" stroke-miterlimit="4"/><path stroke-linecap="butt" transform="matrix(1.579659, 0.9125, -0.912016, 1.580496, 17.407005, -191.696764)" fill-opacity="1" fill="#000000" fill-rule="nonzero" stroke-linejoin="miter" d="M 147.99939 111.000863 L 172.00014 148.999286 " stroke="#0f2e68" stroke-width="1" stroke-opacity="1" stroke-miterlimit="4"/><path stroke-linecap="butt" transform="matrix(1.579659, 0.9125, -0.912016, 1.580496, 17.407005, -191.696764)" fill-opacity="1" fill="#000000" fill-rule="nonzero" stroke-linejoin="miter" d="M 139.001159 118.000214 L 181.000225 141.998864 " stroke="#0f2e68" stroke-width="1" stroke-opacity="1" stroke-miterlimit="4"/><path stroke-linecap="butt" transform="matrix(1.579659, 0.9125, -0.912016, 1.580496, 17.407005, -191.696764)" fill-opacity="1" fill="#000000" fill-rule="nonzero" stroke-linejoin="miter" d="M 137.998772 129.999904 L 182.000758 130.000245 " stroke="#0f2e68" stroke-width="1" stroke-opacity="1" stroke-miterlimit="4"/></svg>